# vtk DataFile Version 3.0
Triangulation generated with deal.II
ASCII
DATASET UNSTRUCTURED_GRID
POINTS 78 double
-0.288675 -0.288675 -0.288675
0.288675 -0.288675 -0.288675
-0.288675 0.288675 -0.288675
0.288675 0.288675 -0.288675
-0.288675 -0.288675 0.288675
0.288675 -0.288675 0.288675
-0.288675 0.288675 0.288675
0.288675 0.288675 0.288675
-0.57735 -0.57735 -0.57735
0.57735 -0.57735 -0.57735
-0.57735 0.57735 -0.57735
0.57735 0.57735 -0.57735
-0.57735 -0.57735 0.57735
0.57735 -0.57735 0.57735
-0.57735 0.57735 0.57735
0.57735 0.57735 0.57735
0 -0.353553 -0.353553
-0.353553 0 -0.353553
-0.353553 -0.353553 0
0.353553 0 -0.353553
0.353553 -0.353553 0
0 0.353553 -0.353553
-0.353553 0.353553 0
0.353553 0.353553 0
0 -0.353553 0.353553
-0.353553 0 0.353553
0.353553 0 0.353553
0 0.353553 0.353553
-0.433013 -0.433013 -0.433013
0 -0.707107 -0.707107
-0.707107 0 -0.707107
-0.707107 -0.707107 0
0.433013 -0.433013 -0.433013
0.707107 0 -0.707107
0.707107 -0.707107 0
-0.433013 0.433013 -0.433013
0 0.707107 -0.707107
-0.707107 0.707107 0
0.433013 0.433013 -0.433013
0.707107 0.707107 0
-0.433013 -0.433013 0.433013
0 -0.707107 0.707107
-0.707107 0 0.707107
0.433013 -0.433013 0.433013
0.707107 0 0.707107
-0.433013 0.433013 0.433013
0 0.707107 0.707107
0.433013 0.433013 0.433013
0 -0.5 0
0 0 -0.5
-0.5 0 0
0.5 0 0
0 0.5 0
0 0 0.5
-0.53033 0 -0.53033
-0.53033 -0.53033 0
0 -0.53033 -0.53033
0 -1 0
0 0 -1
-1 0 0
0.53033 0 -0.53033
1 0 0
0.53033 -0.53033 0
-0.53033 0.53033 0
0 0.53033 -0.53033
0 1 0
0.53033 0.53033 0
0 -0.53033 0.53033
0 0 1
-0.53033 0 0.53033
0.53033 0 0.53033
0 0.53033 0.53033
0 0 -0.75
0.75 0 -4.16334e-17
0 -4.16334e-17 0.75
-0.75 0 0
0 -0.75 -4.16334e-17
0 0.75 0

CELLS 412 1860
8 8 29 58 30 28 56 72 54
8 29 9 33 58 56 32 60 72
8 30 58 36 10 54 72 64 35
8 58 33 11 36 72 60 38 64
8 28 56 72 54 0 16 49 17
8 56 32 60 72 16 1 19 49
8 54 72 64 35 17 49 21 2
8 72 60 38 64 49 19 3 21
8 9 33 60 32 34 61 73 62
8 33 11 38 60 61 39 66 73
8 32 60 19 1 62 73 51 20
8 60 38 3 19 73 66 23 51
8 34 61 73 62 13 44 70 43
8 61 39 66 73 44 15 47 70
8 62 73 51 20 43 70 26 5
8 73 66 23 51 70 47 7 26
8 12 41 67 40 42 68 74 69
8 41 13 43 67 68 44 70 74
8 40 67 24 4 69 74 53 25
8 67 43 5 24 74 70 26 53
8 42 68 74 69 14 46 71 45
8 68 44 70 74 46 15 47 71
8 69 74 53 25 45 71 27 6
8 74 70 26 53 71 47 7 27
8 8 28 54 30 31 55 75 59
8 28 0 17 54 55 18 50 75
8 30 54 35 10 59 75 63 37
8 54 17 2 35 75 50 22 63
8 31 55 75 59 12 40 69 42
8 55 18 50 75 40 4 25 69
8 59 75 63 37 42 69 45 14
8 75 50 22 63 69 25 6 45
8 8 29 56 28 31 57 76 55
8 29 9 32 56 57 34 62 76
8 28 56 16 0 55 76 48 18
8 56 32 1 16 76 62 20 48
8 31 57 76 55 12 41 67 40
8 57 34 62 76 41 13 43 67
8 55 76 48 18 40 67 24 4
8 76 62 20 48 67 43 5 24
8 10 35 64 36 37 63 77 65
8 35 2 21 64 63 22 52 77
8 36 64 38 11 65 77 66 39
8 64 21 3 38 77 52 23 66
8 37 63 77 65 14 45 71 46
8 63 22 52 77 45 6 27 71
8 65 77 66 39 46 71 47 15
8 77 52 23 66 71 27 7 47
4 0 18 48 16
4 18 4 24 48
4 16 48 20 1
4 48 24 5 20
4 0 16 49 17
4 16 1 19 49
4 17 49 21 2
4 49 19 3 21
4 0 17 50 18
4 17 2 22 50
4 18 50 25 4
4 50 22 6 25
4 1 20 51 19
4 20 5 26 51
4 19 51 23 3
4 51 26 7 23
4 2 21 52 22
4 21 3 23 52
4 22 52 27 6
4 52 23 7 27
4 4 25 53 24
4 25 6 27 53
4 24 53 26 5
4 53 27 7 26
4 8 30 54 28
4 30 10 35 54
4 28 54 17 0
4 54 35 2 17
4 8 31 55 28
4 31 12 40 55
4 28 55 18 0
4 55 40 4 18
4 8 28 56 29
4 28 0 16 56
4 29 56 32 9
4 56 16 1 32
4 8 31 57 29
4 31 12 41 57
4 29 57 34 9
4 57 41 13 34
4 8 29 58 30
4 29 9 33 58
4 30 58 36 10
4 58 33 11 36
4 8 30 59 31
4 30 10 37 59
4 31 59 42 12
4 59 37 14 42
4 9 33 60 32
4 33 11 38 60
4 32 60 19 1
4 60 38 3 19
4 9 34 61 33
4 34 13 44 61
4 33 61 39 11
4 61 44 15 39
4 9 32 62 34
4 32 1 20 62
4 34 62 43 13
4 62 20 5 43
4 10 37 63 35
4 37 14 45 63
4 35 63 22 2
4 63 45 6 22
4 10 35 64 36
4 35 2 21 64
4 36 64 38 11
4 64 21 3 38
4 10 36 65 37
4 36 11 39 65
4 37 65 46 14
4 65 39 15 46
4 11 38 66 39
4 38 3 23 66
4 39 66 47 15
4 66 23 7 47
4 12 41 67 40
4 41 13 43 67
4 40 67 24 4
4 67 43 5 24
4 12 42 68 41
4 42 14 46 68
4 41 68 44 13
4 68 46 15 44
4 12 40 69 42
4 40 4 25 69
4 42 69 45 14
4 69 25 6 45
4 13 44 70 43
4 44 15 47 70
4 43 70 26 5
4 70 47 7 26
4 14 46 71 45
4 46 15 47 71
4 45 71 27 6
4 71 47 7 27
4 77 52 23 66
4 65 77 66 39
4 63 22 52 77
4 37 63 77 65
4 77 71 27 52
4 64 77 52 21
4 65 46 71 77
4 36 65 77 64
4 77 66 47 71
4 63 77 71 45
4 64 38 66 77
4 35 64 77 63
4 76 62 20 48
4 55 76 48 18
4 57 34 62 76
4 31 57 76 55
4 76 67 43 62
4 56 76 62 32
4 55 40 67 76
4 28 55 76 56
4 76 48 24 67
4 57 76 67 41
4 56 16 48 76
4 29 56 76 57
4 75 50 22 63
4 59 75 63 37
4 55 18 50 75
4 31 55 75 59
4 75 69 25 50
4 54 75 50 17
4 59 42 69 75
4 30 59 75 54
4 75 63 45 69
4 55 75 69 40
4 54 35 63 75
4 28 54 75 55
4 74 70 26 53
4 69 74 53 25
4 68 44 70 74
4 42 68 74 69
4 74 71 47 70
4 67 74 70 43
4 69 45 71 74
4 40 69 74 67
4 74 53 27 71
4 68 74 71 46
4 67 24 53 74
4 41 67 74 68
4 73 66 23 51
4 62 73 51 20
4 61 39 66 73
4 34 61 73 62
4 73 70 47 66
4 60 73 66 38
4 62 43 70 73
4 32 62 73 60
4 73 51 26 70
4 61 73 70 44
4 60 19 51 73
4 33 60 73 61
4 72 60 38 64
4 54 72 64 35
4 56 32 60 72
4 28 56 72 54
4 72 49 19 60
4 58 72 60 33
4 54 17 49 72
4 30 54 72 58
4 72 64 21 49
4 56 72 49 16
4 58 36 64 72
4 29 58 72 56
2 0 16
2 18 48
2 0 18
2 16 48
2 4 24
2 18 4
2 48 24
2 16 1
2 48 20
2 1 20
2 24 5
2 20 5
2 0 17
2 16 49
2 17 49
2 1 19
2 49 19
2 17 2
2 49 21
2 2 21
2 19 3
2 21 3
2 17 50
2 18 50
2 2 22
2 50 22
2 50 25
2 4 25
2 22 6
2 25 6
2 20 51
2 19 51
2 5 26
2 51 26
2 51 23
2 3 23
2 26 7
2 23 7
2 21 52
2 22 52
2 52 23
2 52 27
2 6 27
2 27 7
2 25 53
2 24 53
2 53 27
2 53 26
2 8 28
2 30 54
2 8 30
2 28 54
2 10 35
2 30 10
2 54 35
2 28 0
2 54 17
2 35 2
2 31 55
2 8 31
2 28 55
2 12 40
2 31 12
2 55 40
2 55 18
2 40 4
2 8 29
2 28 56
2 29 56
2 56 16
2 29 9
2 56 32
2 9 32
2 32 1
2 31 57
2 29 57
2 12 41
2 57 41
2 57 34
2 9 34
2 41 13
2 34 13
2 29 58
2 30 58
2 9 33
2 58 33
2 58 36
2 10 36
2 33 11
2 36 11
2 30 59
2 31 59
2 10 37
2 59 37
2 59 42
2 12 42
2 37 14
2 42 14
2 33 60
2 32 60
2 11 38
2 60 38
2 60 19
2 38 3
2 34 61
2 33 61
2 13 44
2 61 44
2 61 39
2 11 39
2 44 15
2 39 15
2 32 62
2 34 62
2 62 20
2 62 43
2 13 43
2 43 5
2 37 63
2 35 63
2 14 45
2 63 45
2 63 22
2 45 6
2 35 64
2 36 64
2 64 21
2 64 38
2 36 65
2 37 65
2 65 39
2 65 46
2 14 46
2 46 15
2 38 66
2 39 66
2 66 23
2 66 47
2 15 47
2 47 7
2 41 67
2 40 67
2 67 43
2 67 24
2 42 68
2 41 68
2 68 46
2 68 44
2 40 69
2 42 69
2 69 25
2 69 45
2 44 70
2 43 70
2 70 47
2 70 26
2 46 71
2 45 71
2 71 47
2 71 27
2 77 66
2 77 52
2 65 77
2 63 77
2 77 71
2 64 77
2 76 48
2 76 62
2 55 76
2 57 76
2 76 67
2 56 76
2 75 63
2 75 50
2 59 75
2 55 75
2 75 69
2 54 75
2 74 53
2 74 70
2 69 74
2 68 74
2 74 71
2 67 74
2 73 51
2 73 66
2 62 73
2 61 73
2 73 70
2 60 73
2 72 64
2 72 60
2 54 72
2 56 72
2 72 49
2 58 72

CELL_TYPES 412
12 12 12 12 12 12 12 12 12 12 12 12 12 12 12 12 12 12 12 12 12 12 12 12 12 12 12 12 12 12 12 12 12 12 12 12 12 12 12 12 12 12 12 12 12 12 12 12 
9 9 9 9 9 9 9 9 9 9 9 9 9 9 9 9 9 9 9 9 9 9 9 9 9 9 9 9 9 9 9 9 9 9 9 9 9 9 9 9 9 9 9 9 9 9 9 9 9 9 9 9 9 9 9 9 9 9 9 9 9 9 9 9 9 9 9 9 9 9 9 9 9 9 9 9 9 9 9 9 9 9 9 9 9 9 9 9 9 9 9 9 9 9 9 9 9 9 9 9 9 9 9 9 9 9 9 9 9 9 9 9 9 9 9 9 9 9 9 9 9 9 9 9 9 9 9 9 9 9 9 9 9 9 9 9 9 9 9 9 9 9 9 9 9 9 9 9 9 9 9 9 9 9 9 9 9 9 9 9 9 9 9 9 9 9 9 9 
3 3 3 3 3 3 3 3 3 3 3 3 3 3 3 3 3 3 3 3 3 3 3 3 3 3 3 3 3 3 3 3 3 3 3 3 3 3 3 3 3 3 3 3 3 3 3 3 3 3 3 3 3 3 3 3 3 3 3 3 3 3 3 3 3 3 3 3 3 3 3 3 3 3 3 3 3 3 3 3 3 3 3 3 3 3 3 3 3 3 3 3 3 3 3 3 3 3 3 3 3 3 3 3 3 3 3 3 3 3 3 3 3 3 3 3 3 3 3 3 3 3 3 3 3 3 3 3 3 3 3 3 3 3 3 3 3 3 3 3 3 3 3 3 3 3 3 3 3 3 3 3 3 3 3 3 3 3 3 3 3 3 3 3 3 3 3 3 3 3 3 3 3 3 3 3 3 3 3 3 3 3 3 3 3 3 3 3 3 3 3 3 3 3 3 3 

CELL_DATA 412
SCALARS MaterialID int 1
LOOKUP_TABLE default
0 0 0 0 0 0 0 0 0 0 0 0 0 0 0 0 0 0 0 0 0 0 0 0 0 0 0 0 0 0 0 0 0 0 0 0 0 0 0 0 0 0 0 0 0 0 0 0 
0 0 0 0 0 0 0 0 0 0 0 0 0 0 0 0 0 0 0 0 0 0 0 0 -1 -1 -1 -1 -1 -1 -1 -1 -1 -1 -1 -1 0 0 0 0 0 0 0 0 0 0 0 0 -1 -1 -1 -1 0 0 0 0 -1 -1 -1 -1 -1 -1 -1 -1 -1 -1 -1 -1 0 0 0 0 -1 -1 -1 -1 -1 -1 -1 -1 0 0 0 0 -1 -1 -1 -1 -1 -1 -1 -1 -1 -1 -1 -1 -1 -1 -1 -1 -1 -1 -1 -1 -1 -1 -1 -1 -1 -1 -1 -1 -1 -1 -1 -1 -1 -1 -1 -1 -1 -1 -1 -1 -1 -1 -1 -1 -1 -1 -1 -1 -1 -1 -1 -1 -1 -1 -1 -1 -1 -1 -1 -1 -1 -1 -1 -1 -1 -1 -1 -1 -1 -1 -1 -1 -1 -1 -1 -1 -1 -1 -1 -1 -1 -1 -1 -1 
0 0 0 0 0 0 0 0 0 0 0 0 0 0 0 0 0 0 0 0 0 0 0 0 0 0 0 0 0 0 0 0 0 0 0 0 0 0 0 0 0 0 0 0 0 0 0 0 -1 -1 0 -1 -1 0 -1 -1 -1 -1 -1 0 -1 -1 0 -1 -1 -1 0 -1 -1 -1 0 -1 -1 -1 0 0 0 0 0 0 0 0 0 0 0 0 0 0 0 0 0 0 0 0 0 0 0 0 -1 -1 -1 -1 -1 -1 0 0 0 0 0 0 0 0 -1 -1 -1 -1 -1 -1 -1 -1 -1 -1 -1 -1 -1 -1 -1 -1 0 0 0 0 0 0 -1 -1 -1 -1 -1 -1 -1 -1 -1 -1 0 0 0 0 -1 -1 -1 -1 -1 -1 -1 -1 -1 -1 -1 -1 -1 -1 -1 -1 -1 -1 -1 -1 -1 -1 -1 -1 -1 -1 -1 -1 -1 -1 -1 -1 -1 -1 -1 -1 -1 -1 -1 -1 -1 -1 -1 -1 -1 -1 -1 -1 

SCALARS ManifoldID int 1
LOOKUP_TABLE default
0 0 0 0 0 0 0 0 0 0 0 0 0 0 0 0 0 0 0 0 0 0 0 0 0 0 0 0 0 0 0 0 0 0 0 0 0 0 0 0 0 0 0 0 0 0 0 0 
0 0 0 0 0 0 0 0 0 0 0 0 0 0 0 0 0 0 0 0 0 0 0 0 0 0 0 0 0 0 0 0 0 0 0 0 0 0 0 0 0 0 0 0 0 0 0 0 0 0 0 0 0 0 0 0 0 0 0 0 0 0 0 0 0 0 0 0 0 0 0 0 0 0 0 0 0 0 0 0 0 0 0 0 0 0 0 0 0 0 0 0 0 0 0 0 0 0 0 0 0 0 0 0 0 0 0 0 0 0 0 0 0 0 0 0 0 0 0 0 0 0 0 0 0 0 0 0 0 0 0 0 0 0 0 0 0 0 0 0 0 0 0 0 0 0 0 0 0 0 0 0 0 0 0 0 0 0 0 0 0 0 0 0 0 0 0 0 
0 0 0 0 0 0 0 0 0 0 0 0 0 0 0 0 0 0 0 0 0 0 0 0 0 0 0 0 0 0 0 0 0 0 0 0 0 0 0 0 0 0 0 0 0 0 0 0 0 0 0 0 0 0 0 0 0 0 0 0 0 0 0 0 0 0 0 0 0 0 0 0 0 0 0 0 0 0 0 0 0 0 0 0 0 0 0 0 0 0 0 0 0 0 0 0 0 0 0 0 0 0 0 0 0 0 0 0 0 0 0 0 0 0 0 0 0 0 0 0 0 0 0 0 0 0 0 0 0 0 0 0 0 0 0 0 0 0 0 0 0 0 0 0 0 0 0 0 0 0 0 0 0 0 0 0 0 0 0 0 0 0 0 0 0 0 0 0 0 0 0 0 0 0 0 0 0 0 0 0 0 0 0 0 0 0 0 0 0 0 0 0 0 0 0 0 
