# vtk DataFile Version 3.0
Triangulation generated with deal.II
ASCII
DATASET UNSTRUCTURED_GRID
POINTS 200 double
2 0 0
1.61803 1.17557 0
0.618034 1.90211 0
-0.618034 1.90211 0
-1.61803 1.17557 0
-2 2.44929e-16 0
-1.61803 -1.17557 0
-0.618034 -1.90211 0
0.618034 -1.90211 0
1.61803 -1.17557 0
1 0 0
0.809017 0.587785 0
0.309017 0.951057 0
-0.309017 0.951057 0
-0.809017 0.587785 0
-1 1.22465e-16 0
-0.809017 -0.587785 0
-0.309017 -0.951057 0
0.309017 -0.951057 0
0.809017 -0.587785 0
1.90211 0.618034 0
1.5 0 0
1.17557 1.61803 0
1.21353 0.881678 0
5.55112e-16 2 0
0.463525 1.42658 0
-1.17557 1.61803 0
-0.463525 1.42658 0
-1.90211 0.618034 0
-1.21353 0.881678 0
-1.90211 -0.618034 0
-1.5 1.83697e-16 0
-1.17557 -1.61803 0
-1.21353 -0.881678 0
-2.22045e-16 -2 0
-0.463525 -1.42658 0
1.17557 -1.61803 0
0.463525 -1.42658 0
1.90211 -0.618034 0
1.21353 -0.881678 0
0.951057 0.309017 0
0.587785 0.809017 0
2.77556e-16 1 0
-0.587785 0.809017 0
-0.951057 0.309017 0
-0.951057 -0.309017 0
-0.587785 -0.809017 0
-1.11022e-16 -1 0
0.587785 -0.809017 0
0.951057 -0.309017 0
1.42658 0.463525 0
0.881678 1.21353 0
4.24915e-16 1.5 0
-0.881678 1.21353 0
-1.42658 0.463525 0
-1.42658 -0.463525 0
-0.881678 -1.21353 0
-2.75546e-16 -1.5 0
0.881678 -1.21353 0
1.42658 -0.463525 0
1.97538 0.312869 0
1.78201 0.907981 0
1.75 0 0
1.25 0 0
1.41421 1.41421 0
0.907981 1.78201 0
1.41578 1.02862 0
1.01127 0.734732 0
0.312869 1.97538 0
-0.312869 1.97538 0
0.54078 1.66435 0
0.386271 1.18882 0
-0.907981 1.78201 0
-1.41421 1.41421 0
-0.54078 1.66435 0
-0.386271 1.18882 0
-1.78201 0.907981 0
-1.97538 0.312869 0
-1.41578 1.02862 0
-1.01127 0.734732 0
-1.97538 -0.312869 0
-1.78201 -0.907981 0
-1.75 2.14313e-16 0
-1.25 1.53081e-16 0
-1.41421 -1.41421 0
-0.907981 -1.78201 0
-1.41578 -1.02862 0
-1.01127 -0.734732 0
-0.312869 -1.97538 0
0.312869 -1.97538 0
-0.54078 -1.66435 0
-0.386271 -1.18882 0
0.907981 -1.78201 0
1.41421 -1.41421 0
0.54078 -1.66435 0
0.386271 -1.18882 0
1.78201 -0.907981 0
1.97538 -0.312869 0
1.41578 -1.02862 0
1.01127 -0.734732 0
0.987688 0.156434 0
0.891007 0.45399 0
0.707107 0.707107 0
0.45399 0.891007 0
0.156434 0.987688 0
-0.156434 0.987688 0
-0.45399 0.891007 0
-0.707107 0.707107 0
-0.891007 0.45399 0
-0.987688 0.156434 0
-0.987688 -0.156434 0
-0.891007 -0.45399 0
-0.707107 -0.707107 0
-0.45399 -0.891007 0
-0.156434 -0.987688 0
0.156434 -0.987688 0
0.45399 -0.891007 0
0.707107 -0.707107 0
0.891007 -0.45399 0
0.987688 -0.156434 0
1.66435 0.54078 0
1.18882 0.386271 0
1.48153 0.234652 0
1.33651 0.680986 0
1.02862 1.41578 0
0.734732 1.01127 0
1.06066 1.06066 0
0.680986 1.33651 0
4.90013e-16 1.75 0
3.51236e-16 1.25 0
0.234652 1.48153 0
-0.234652 1.48153 0
-1.02862 1.41578 0
-0.734732 1.01127 0
-0.680986 1.33651 0
-1.06066 1.06066 0
-1.66435 0.54078 0
-1.18882 0.386271 0
-1.33651 0.680986 0
-1.48153 0.234652 0
-1.66435 -0.54078 0
-1.18882 -0.386271 0
-1.48153 -0.234652 0
-1.33651 -0.680986 0
-1.02862 -1.41578 0
-0.734732 -1.01127 0
-1.06066 -1.06066 0
-0.680986 -1.33651 0
-2.48795e-16 -1.75 0
-1.93284e-16 -1.25 0
-0.234652 -1.48153 0
0.234652 -1.48153 0
1.02862 -1.41578 0
0.734732 -1.01127 0
0.680986 -1.33651 0
1.06066 -1.06066 0
1.66435 -0.54078 0
1.18882 -0.386271 0
1.33651 -0.680986 0
1.48153 -0.234652 0
1.72845 0.27376 0
1.55926 0.794483 0
1.23461 0.195543 0
1.11376 0.567488 0
1.23744 1.23744 0
0.794483 1.55926 0
0.883883 0.883883 0
0.567488 1.11376 0
0.27376 1.72845 0
-0.27376 1.72845 0
0.195543 1.23461 0
-0.195543 1.23461 0
-0.794483 1.55926 0
-1.23744 1.23744 0
-0.567488 1.11376 0
-0.883883 0.883883 0
-1.55926 0.794483 0
-1.72845 0.27376 0
-1.11376 0.567488 0
-1.23461 0.195543 0
-1.72845 -0.27376 0
-1.55926 -0.794483 0
-1.23461 -0.195543 0
-1.11376 -0.567488 0
-1.23744 -1.23744 0
-0.794483 -1.55926 0
-0.883883 -0.883883 0
-0.567488 -1.11376 0
-0.27376 -1.72845 0
0.27376 -1.72845 0
-0.195543 -1.23461 0
0.195543 -1.23461 0
0.794483 -1.55926 0
1.23744 -1.23744 0
0.567488 -1.11376 0
0.883883 -0.883883 0
1.55926 -0.794483 0
1.72845 -0.27376 0
1.11376 -0.567488 0
1.23461 -0.195543 0

CELLS 520 1880
4 0 60 160 62
4 60 20 120 160
4 62 160 122 21
4 160 120 50 122
4 20 61 161 120
4 61 1 66 161
4 120 161 123 50
4 161 66 23 123
4 21 122 162 63
4 122 50 121 162
4 63 162 100 10
4 162 121 40 100
4 50 123 163 121
4 123 23 67 163
4 121 163 101 40
4 163 67 11 101
4 1 64 164 66
4 64 22 124 164
4 66 164 126 23
4 164 124 51 126
4 22 65 165 124
4 65 2 70 165
4 124 165 127 51
4 165 70 25 127
4 23 126 166 67
4 126 51 125 166
4 67 166 102 11
4 166 125 41 102
4 51 127 167 125
4 127 25 71 167
4 125 167 103 41
4 167 71 12 103
4 2 68 168 70
4 68 24 128 168
4 70 168 130 25
4 168 128 52 130
4 24 69 169 128
4 69 3 74 169
4 128 169 131 52
4 169 74 27 131
4 25 130 170 71
4 130 52 129 170
4 71 170 104 12
4 170 129 42 104
4 52 131 171 129
4 131 27 75 171
4 129 171 105 42
4 171 75 13 105
4 3 72 172 74
4 72 26 132 172
4 74 172 134 27
4 172 132 53 134
4 26 73 173 132
4 73 4 78 173
4 132 173 135 53
4 173 78 29 135
4 27 134 174 75
4 134 53 133 174
4 75 174 106 13
4 174 133 43 106
4 53 135 175 133
4 135 29 79 175
4 133 175 107 43
4 175 79 14 107
4 4 76 176 78
4 76 28 136 176
4 78 176 138 29
4 176 136 54 138
4 28 77 177 136
4 77 5 82 177
4 136 177 139 54
4 177 82 31 139
4 29 138 178 79
4 138 54 137 178
4 79 178 108 14
4 178 137 44 108
4 54 139 179 137
4 139 31 83 179
4 137 179 109 44
4 179 83 15 109
4 5 80 180 82
4 80 30 140 180
4 82 180 142 31
4 180 140 55 142
4 30 81 181 140
4 81 6 86 181
4 140 181 143 55
4 181 86 33 143
4 31 142 182 83
4 142 55 141 182
4 83 182 110 15
4 182 141 45 110
4 55 143 183 141
4 143 33 87 183
4 141 183 111 45
4 183 87 16 111
4 6 84 184 86
4 84 32 144 184
4 86 184 146 33
4 184 144 56 146
4 32 85 185 144
4 85 7 90 185
4 144 185 147 56
4 185 90 35 147
4 33 146 186 87
4 146 56 145 186
4 87 186 112 16
4 186 145 46 112
4 56 147 187 145
4 147 35 91 187
4 145 187 113 46
4 187 91 17 113
4 7 88 188 90
4 88 34 148 188
4 90 188 150 35
4 188 148 57 150
4 34 89 189 148
4 89 8 94 189
4 148 189 151 57
4 189 94 37 151
4 35 150 190 91
4 150 57 149 190
4 91 190 114 17
4 190 149 47 114
4 57 151 191 149
4 151 37 95 191
4 149 191 115 47
4 191 95 18 115
4 8 92 192 94
4 92 36 152 192
4 94 192 154 37
4 192 152 58 154
4 36 93 193 152
4 93 9 98 193
4 152 193 155 58
4 193 98 39 155
4 37 154 194 95
4 154 58 153 194
4 95 194 116 18
4 194 153 48 116
4 58 155 195 153
4 155 39 99 195
4 153 195 117 48
4 195 99 19 117
4 9 96 196 98
4 96 38 156 196
4 98 196 158 39
4 196 156 59 158
4 38 97 197 156
4 97 0 62 197
4 156 197 159 59
4 197 62 21 159
4 39 158 198 99
4 158 59 157 198
4 99 198 118 19
4 198 157 49 118
4 59 159 199 157
4 159 21 63 199
4 157 199 119 49
4 199 63 10 119
2 0 60
2 60 20
2 20 61
2 61 1
2 0 62
2 62 21
2 21 63
2 63 10
2 1 64
2 64 22
2 22 65
2 65 2
2 1 66
2 66 23
2 23 67
2 67 11
2 2 68
2 68 24
2 24 69
2 69 3
2 2 70
2 70 25
2 25 71
2 71 12
2 3 72
2 72 26
2 26 73
2 73 4
2 3 74
2 74 27
2 27 75
2 75 13
2 4 76
2 76 28
2 28 77
2 77 5
2 4 78
2 78 29
2 29 79
2 79 14
2 5 80
2 80 30
2 30 81
2 81 6
2 5 82
2 82 31
2 31 83
2 83 15
2 6 84
2 84 32
2 32 85
2 85 7
2 6 86
2 86 33
2 33 87
2 87 16
2 7 88
2 88 34
2 34 89
2 89 8
2 7 90
2 90 35
2 35 91
2 91 17
2 8 92
2 92 36
2 36 93
2 93 9
2 8 94
2 94 37
2 37 95
2 95 18
2 9 96
2 96 38
2 38 97
2 97 0
2 9 98
2 98 39
2 39 99
2 99 19
2 10 100
2 100 40
2 40 101
2 101 11
2 11 102
2 102 41
2 41 103
2 103 12
2 12 104
2 104 42
2 42 105
2 105 13
2 13 106
2 106 43
2 43 107
2 107 14
2 14 108
2 108 44
2 44 109
2 109 15
2 15 110
2 110 45
2 45 111
2 111 16
2 16 112
2 112 46
2 46 113
2 113 17
2 17 114
2 114 47
2 47 115
2 115 18
2 18 116
2 116 48
2 48 117
2 117 19
2 19 118
2 118 49
2 49 119
2 119 10
2 20 120
2 120 50
2 50 121
2 121 40
2 21 122
2 122 50
2 50 123
2 123 23
2 22 124
2 124 51
2 51 125
2 125 41
2 23 126
2 126 51
2 51 127
2 127 25
2 24 128
2 128 52
2 52 129
2 129 42
2 25 130
2 130 52
2 52 131
2 131 27
2 26 132
2 132 53
2 53 133
2 133 43
2 27 134
2 134 53
2 53 135
2 135 29
2 28 136
2 136 54
2 54 137
2 137 44
2 29 138
2 138 54
2 54 139
2 139 31
2 30 140
2 140 55
2 55 141
2 141 45
2 31 142
2 142 55
2 55 143
2 143 33
2 32 144
2 144 56
2 56 145
2 145 46
2 33 146
2 146 56
2 56 147
2 147 35
2 34 148
2 148 57
2 57 149
2 149 47
2 35 150
2 150 57
2 57 151
2 151 37
2 36 152
2 152 58
2 58 153
2 153 48
2 37 154
2 154 58
2 58 155
2 155 39
2 38 156
2 156 59
2 59 157
2 157 49
2 39 158
2 158 59
2 59 159
2 159 21
2 60 160
2 160 122
2 62 160
2 160 120
2 61 161
2 161 123
2 120 161
2 161 66
2 122 162
2 162 100
2 63 162
2 162 121
2 123 163
2 163 101
2 121 163
2 163 67
2 64 164
2 164 126
2 66 164
2 164 124
2 65 165
2 165 127
2 124 165
2 165 70
2 126 166
2 166 102
2 67 166
2 166 125
2 127 167
2 167 103
2 125 167
2 167 71
2 68 168
2 168 130
2 70 168
2 168 128
2 69 169
2 169 131
2 128 169
2 169 74
2 130 170
2 170 104
2 71 170
2 170 129
2 131 171
2 171 105
2 129 171
2 171 75
2 72 172
2 172 134
2 74 172
2 172 132
2 73 173
2 173 135
2 132 173
2 173 78
2 134 174
2 174 106
2 75 174
2 174 133
2 135 175
2 175 107
2 133 175
2 175 79
2 76 176
2 176 138
2 78 176
2 176 136
2 77 177
2 177 139
2 136 177
2 177 82
2 138 178
2 178 108
2 79 178
2 178 137
2 139 179
2 179 109
2 137 179
2 179 83
2 80 180
2 180 142
2 82 180
2 180 140
2 81 181
2 181 143
2 140 181
2 181 86
2 142 182
2 182 110
2 83 182
2 182 141
2 143 183
2 183 111
2 141 183
2 183 87
2 84 184
2 184 146
2 86 184
2 184 144
2 85 185
2 185 147
2 144 185
2 185 90
2 146 186
2 186 112
2 87 186
2 186 145
2 147 187
2 187 113
2 145 187
2 187 91
2 88 188
2 188 150
2 90 188
2 188 148
2 89 189
2 189 151
2 148 189
2 189 94
2 150 190
2 190 114
2 91 190
2 190 149
2 151 191
2 191 115
2 149 191
2 191 95
2 92 192
2 192 154
2 94 192
2 192 152
2 93 193
2 193 155
2 152 193
2 193 98
2 154 194
2 194 116
2 95 194
2 194 153
2 155 195
2 195 117
2 153 195
2 195 99
2 96 196
2 196 158
2 98 196
2 196 156
2 97 197
2 197 159
2 156 197
2 197 62
2 158 198
2 198 118
2 99 198
2 198 157
2 159 199
2 199 119
2 157 199
2 199 63

CELL_TYPES 520
9 9 9 9 9 9 9 9 9 9 9 9 9 9 9 9 9 9 9 9 9 9 9 9 9 9 9 9 9 9 9 9 9 9 9 9 9 9 9 9 9 9 9 9 9 9 9 9 9 9 9 9 9 9 9 9 9 9 9 9 9 9 9 9 9 9 9 9 9 9 9 9 9 9 9 9 9 9 9 9 9 9 9 9 9 9 9 9 9 9 9 9 9 9 9 9 9 9 9 9 9 9 9 9 9 9 9 9 9 9 9 9 9 9 9 9 9 9 9 9 9 9 9 9 9 9 9 9 9 9 9 9 9 9 9 9 9 9 9 9 9 9 9 9 9 9 9 9 9 9 9 9 9 9 9 9 9 9 9 9 
3 3 3 3 3 3 3 3 3 3 3 3 3 3 3 3 3 3 3 3 3 3 3 3 3 3 3 3 3 3 3 3 3 3 3 3 3 3 3 3 3 3 3 3 3 3 3 3 3 3 3 3 3 3 3 3 3 3 3 3 3 3 3 3 3 3 3 3 3 3 3 3 3 3 3 3 3 3 3 3 3 3 3 3 3 3 3 3 3 3 3 3 3 3 3 3 3 3 3 3 3 3 3 3 3 3 3 3 3 3 3 3 3 3 3 3 3 3 3 3 3 3 3 3 3 3 3 3 3 3 3 3 3 3 3 3 3 3 3 3 3 3 3 3 3 3 3 3 3 3 3 3 3 3 3 3 3 3 3 3 3 3 3 3 3 3 3 3 3 3 3 3 3 3 3 3 3 3 3 3 3 3 3 3 3 3 3 3 3 3 3 3 3 3 3 3 3 3 3 3 3 3 3 3 3 3 3 3 3 3 3 3 3 3 3 3 3 3 3 3 3 3 3 3 3 3 3 3 3 3 3 3 3 3 3 3 3 3 3 3 3 3 3 3 3 3 3 3 3 3 3 3 3 3 3 3 3 3 3 3 3 3 3 3 3 3 3 3 3 3 3 3 3 3 3 3 3 3 3 3 3 3 3 3 3 3 3 3 3 3 3 3 3 3 3 3 3 3 3 3 3 3 3 3 3 3 3 3 3 3 3 3 3 3 3 3 3 3 3 3 3 3 3 3 3 3 3 3 3 3 3 3 3 3 3 3 3 3 3 3 3 3 3 3 3 3 3 3 3 3 3 3 3 3 3 3 3 3 3 3 


CELL_DATA 520
SCALARS MaterialID int 1
LOOKUP_TABLE default
0 0 0 0 0 0 0 0 0 0 0 0 0 0 0 0 0 0 0 0 0 0 0 0 0 0 0 0 0 0 0 0 0 0 0 0 0 0 0 0 0 0 0 0 0 0 0 0 0 0 0 0 0 0 0 0 0 0 0 0 0 0 0 0 0 0 0 0 0 0 0 0 0 0 0 0 0 0 0 0 0 0 0 0 0 0 0 0 0 0 0 0 0 0 0 0 0 0 0 0 0 0 0 0 0 0 0 0 0 0 0 0 0 0 0 0 0 0 0 0 0 0 0 0 0 0 0 0 0 0 0 0 0 0 0 0 0 0 0 0 0 0 0 0 0 0 0 0 0 0 0 0 0 0 0 0 0 0 0 0 
1 1 1 1 -1 -1 -1 -1 1 1 1 1 -1 -1 -1 -1 1 1 1 1 -1 -1 -1 -1 1 1 1 1 -1 -1 -1 -1 1 1 1 1 -1 -1 -1 -1 1 1 1 1 -1 -1 -1 -1 1 1 1 1 -1 -1 -1 -1 1 1 1 1 -1 -1 -1 -1 1 1 1 1 -1 -1 -1 -1 1 1 1 1 -1 -1 -1 -1 0 0 0 0 0 0 0 0 0 0 0 0 0 0 0 0 0 0 0 0 0 0 0 0 0 0 0 0 0 0 0 0 0 0 0 0 0 0 0 0 -1 -1 -1 -1 -1 -1 -1 -1 -1 -1 -1 -1 -1 -1 -1 -1 -1 -1 -1 -1 -1 -1 -1 -1 -1 -1 -1 -1 -1 -1 -1 -1 -1 -1 -1 -1 -1 -1 -1 -1 -1 -1 -1 -1 -1 -1 -1 -1 -1 -1 -1 -1 -1 -1 -1 -1 -1 -1 -1 -1 -1 -1 -1 -1 -1 -1 -1 -1 -1 -1 -1 -1 -1 -1 -1 -1 -1 -1 -1 -1 -1 -1 -1 -1 -1 -1 -1 -1 -1 -1 -1 -1 -1 -1 -1 -1 -1 -1 -1 -1 -1 -1 -1 -1 -1 -1 -1 -1 -1 -1 -1 -1 -1 -1 -1 -1 -1 -1 -1 -1 -1 -1 -1 -1 -1 -1 -1 -1 -1 -1 -1 -1 -1 -1 -1 -1 -1 -1 -1 -1 -1 -1 -1 -1 -1 -1 -1 -1 -1 -1 -1 -1 -1 -1 -1 -1 -1 -1 -1 -1 -1 -1 -1 -1 -1 -1 -1 -1 -1 -1 -1 -1 -1 -1 -1 -1 -1 -1 -1 -1 -1 -1 -1 -1 -1 -1 -1 -1 -1 -1 -1 -1 -1 -1 -1 -1 -1 -1 -1 -1 -1 -1 -1 -1 -1 -1 -1 -1 -1 -1 -1 -1 -1 -1 -1 -1 -1 -1 -1 -1 -1 -1 -1 -1 -1 -1 -1 -1 -1 -1 -1 -1 -1 -1 -1 -1 -1 -1 -1 -1 


SCALARS ManifoldID int 1
LOOKUP_TABLE default
0 0 0 0 0 0 0 0 0 0 0 0 0 0 0 0 0 0 0 0 0 0 0 0 0 0 0 0 0 0 0 0 0 0 0 0 0 0 0 0 0 0 0 0 0 0 0 0 0 0 0 0 0 0 0 0 0 0 0 0 0 0 0 0 0 0 0 0 0 0 0 0 0 0 0 0 0 0 0 0 0 0 0 0 0 0 0 0 0 0 0 0 0 0 0 0 0 0 0 0 0 0 0 0 0 0 0 0 0 0 0 0 0 0 0 0 0 0 0 0 0 0 0 0 0 0 0 0 0 0 0 0 0 0 0 0 0 0 0 0 0 0 0 0 0 0 0 0 0 0 0 0 0 0 0 0 0 0 0 0 
0 0 0 0 0 0 0 0 0 0 0 0 0 0 0 0 0 0 0 0 0 0 0 0 0 0 0 0 0 0 0 0 0 0 0 0 0 0 0 0 0 0 0 0 0 0 0 0 0 0 0 0 0 0 0 0 0 0 0 0 0 0 0 0 0 0 0 0 0 0 0 0 0 0 0 0 0 0 0 0 0 0 0 0 0 0 0 0 0 0 0 0 0 0 0 0 0 0 0 0 0 0 0 0 0 0 0 0 0 0 0 0 0 0 0 0 0 0 0 0 0 0 0 0 0 0 0 0 0 0 0 0 0 0 0 0 0 0 0 0 0 0 0 0 0 0 0 0 0 0 0 0 0 0 0 0 0 0 0 0 0 0 0 0 0 0 0 0 0 0 0 0 0 0 0 0 0 0 0 0 0 0 0 0 0 0 0 0 0 0 0 0 0 0 0 0 0 0 0 0 0 0 0 0 0 0 0 0 0 0 0 0 0 0 0 0 0 0 0 0 0 0 0 0 0 0 0 0 0 0 0 0 0 0 0 0 0 0 0 0 0 0 0 0 0 0 0 0 0 0 0 0 0 0 0 0 0 0 0 0 0 0 0 0 0 0 0 0 0 0 0 0 0 0 0 0 0 0 0 0 0 0 0 0 0 0 0 0 0 0 0 0 0 0 0 0 0 0 0 0 0 0 0 0 0 0 0 0 0 0 0 0 0 0 0 0 0 0 0 0 0 0 0 0 0 0 0 0 0 0 0 0 0 0 0 0 0 0 0 0 0 0 0 0 0 0 0 0 0 0 0 0 0 0 0 0 0 0 0 0 

